<?xml version="1.0" encoding="UTF-8"?>
<svg xmlns="http://www.w3.org/2000/svg" width="121" height="24" viewBox="0 0 121 24" fill="none">
  <g id="Frame" clip-path="url(#clip0_1326_94180)">
    <g id="Group">
      <path id="Vector" d="M49.3468 11.4231C49.3468 16.3972 46.6551 18.8117 40.8414 18.8117C35.0276 18.8117 32.3359 16.4142 32.3359 11.4231H35.9811C35.9811 13.4281 36.5296 15.7231 40.8414 15.7231C45.1532 15.7231 45.7016 13.411 45.7016 11.4231V4.27344H49.3468V11.4231Z" fill="#EDEDFF"></path>
      <path id="Vector_2" d="M59.9964 18.8117C53.7608 18.8117 51.0859 16.4142 51.0859 11.4231V4.27344H54.7311V11.4231C54.7311 13.4281 55.2796 15.7231 59.9964 15.7231C64.7132 15.7231 65.2617 13.411 65.2617 11.4231V4.27344H68.9069V11.4231C68.9069 16.3972 66.2152 18.8117 59.9964 18.8117Z" fill="#EDEDFF"></path>
      <path id="Vector_3" d="M73.8574 13.6674C73.8574 15.186 75.0724 15.8771 79.688 15.8771C83.5188 15.8771 84.6664 15.4505 84.6664 14.3243C84.6664 13.1384 83.8563 12.9336 79.2577 12.7033C73.0811 12.4132 70.6341 11.432 70.6341 8.21554C70.6341 4.99905 73.8152 4.06055 79.1142 4.06055C84.4132 4.06055 87.6956 5.40857 87.6956 8.95781H84.0504C84.0504 7.37942 82.4894 6.99549 78.7007 6.99549C75.1146 6.99549 74.2624 7.3453 74.2624 8.41177C74.2624 9.47825 75.1146 9.72567 79.2408 9.96456C84.8267 10.2717 88.2947 10.5789 88.2947 14.2049C88.2947 18.0357 84.7086 18.8121 79.4686 18.8121C73.6549 18.8121 70.1953 17.8053 70.1953 13.6759H73.8405L73.8574 13.6674Z" fill="#EDEDFF"></path>
      <path id="Vector_4" d="M107.702 4.27344C107.305 4.27344 106.926 4.37582 106.571 4.54646C106.217 4.71709 105.491 5.13515 104.926 5.12662C104.36 5.13515 103.618 4.70856 103.28 4.54646C102.943 4.38435 102.546 4.27344 102.15 4.27344C99.3315 4.27344 88.8516 4.27344 88.8516 4.27344V7.36195H95.7369V18.5984H99.3821V7.36195H102.133C102.538 7.36195 102.926 7.26811 103.289 7.08894C103.626 6.92683 104.36 6.50024 104.926 6.50877C105.491 6.50024 106.225 6.9183 106.563 7.08894C106.926 7.26811 107.322 7.36195 107.719 7.36195H110.47V18.5984H114.115V7.36195H121V4.27344C121 4.27344 110.52 4.27344 107.702 4.27344Z" fill="#EDEDFF"></path>
    </g>
    <path id="tFTs7X.tif" d="M20.3846 11.2797C20.8571 11.237 21.2537 11.1005 21.5912 10.7678C22.1734 10.1961 23.0509 10.2132 23.6332 10.7678C24.2576 11.365 24.3588 12.2608 23.8694 12.9092C23.4053 13.5235 22.5194 13.6686 21.8359 13.2164C21.0005 12.6703 20.1314 12.4571 19.2539 13.0628C18.8995 13.3102 18.5873 13.6515 18.3173 14.0013C17.9207 14.5132 17.9291 15.1019 18.1907 15.6821C18.292 15.9039 18.427 16.1172 18.5535 16.3305C18.9164 16.9363 18.8404 17.6871 18.3595 18.1819C17.8869 18.6767 17.136 18.7706 16.5284 18.4123C16.3344 18.3013 16.1572 18.1648 15.9631 18.071C15.0012 17.6103 14.2333 17.8321 13.3473 18.8133C12.706 19.5214 12.6385 20.4855 13.1532 21.3728C13.2461 21.5349 13.3558 21.6799 13.4317 21.8421C13.7439 22.5161 13.5414 23.2754 12.9592 23.702C12.4023 24.1115 11.6175 24.0689 11.086 23.5996C10.5712 23.1389 10.4531 22.3625 10.7906 21.7226C10.9594 21.4155 11.145 21.1083 11.2631 20.7756C11.4319 20.3063 11.4066 19.8115 11.1788 19.3593C10.7906 18.6 9.86245 17.67 8.95115 17.8577C8.50394 17.9515 8.08205 18.1734 7.66859 18.3867C7.11168 18.6853 6.57166 18.7023 6.0485 18.3525C5.52535 18.0113 5.3144 17.4994 5.40722 16.8851C5.44941 16.6206 5.56754 16.3561 5.71099 16.1257C6.34383 15.0593 6.31852 14.4108 5.58442 13.6344C4.60562 12.6021 3.71963 12.4144 2.66489 12.9775C2.29362 13.1737 1.8886 13.3785 1.48358 13.4211C0.816984 13.4894 0.302269 13.0884 0.0744452 12.4656C-0.136503 11.8769 0.0491314 11.1858 0.530094 10.7848C1.01106 10.3753 1.69453 10.3156 2.243 10.6654C2.75771 10.9896 3.28086 11.2626 3.91371 11.2114C4.88407 11.1432 5.50004 10.5118 5.95569 9.74394C6.35227 9.07845 6.09913 8.43004 5.71099 7.82428C5.01064 6.74927 5.50004 5.50362 6.68979 5.36711C7.01043 5.33299 7.36482 5.48656 7.68546 5.59747C7.99767 5.70839 8.27612 5.92168 8.59676 6.0326C9.14523 6.2203 9.68526 6.13498 10.1493 5.76811C11.3053 4.86374 11.8285 3.81432 10.8581 2.32979C10.4278 1.66431 10.529 0.853782 11.0775 0.358937C11.6429 -0.14444 12.4951 -0.170036 13.0436 0.307746C13.6258 0.811123 13.7439 1.61311 13.3136 2.30419C12.9423 2.90142 12.6807 3.50718 12.8579 4.23238C13.2461 5.8449 14.959 6.58716 16.309 5.66573C17.406 4.91493 18.5957 5.55481 18.7307 6.5701C18.7729 6.91137 18.6463 7.28677 18.5367 7.61951C18.4438 7.90106 18.2244 8.13995 18.1232 8.4215C17.8954 9.05286 17.9882 9.65862 18.4691 10.1364C18.7982 10.4691 19.1611 10.7678 19.5492 11.0152C19.777 11.1602 20.0892 11.1687 20.3592 11.2455L20.3846 11.2797ZM16.5791 9.06139C16.5791 8.36178 16.0643 7.75602 15.364 7.62805C14.689 7.5086 14.1574 7.79015 13.6764 8.2594C12.6638 9.24909 11.4825 9.23203 10.47 8.24234C10.2422 8.02051 9.95527 7.83281 9.66838 7.70483C9.00178 7.42328 8.23393 7.68777 7.83735 8.26793C7.48295 8.78837 7.55046 9.56477 7.99767 10.1023C8.10736 10.2302 8.23393 10.3497 8.35206 10.4691C9.15366 11.2967 9.17898 12.5253 8.41956 13.3956C8.28456 13.5491 8.13267 13.7027 7.99767 13.8648C7.51671 14.462 7.47452 15.2555 7.89641 15.793C8.35206 16.3732 9.15366 16.5779 9.8287 16.2281C10.124 16.0745 10.3856 15.8442 10.6303 15.6138C11.3644 14.9227 12.4191 14.8033 13.2461 15.3749C13.457 15.52 13.6342 15.7247 13.8283 15.8954C14.8155 16.7742 16.2078 16.4499 16.5369 15.264C16.7056 14.6412 16.4187 14.1464 16.039 13.6856C15.8112 13.4126 15.5581 13.1567 15.4146 12.841C15.018 11.9793 15.2121 11.109 15.8956 10.4265C16.2753 10.0426 16.5791 9.63302 16.5791 9.06139ZM0.530094 6.91137C0.54697 7.57685 1.11231 8.13142 1.76203 8.13142C2.44551 8.13142 2.99397 7.56832 2.99397 6.86871C2.99397 6.17764 2.43707 5.6316 1.74516 5.64013C1.05325 5.64013 0.513218 6.21176 0.530094 6.91137ZM22.6797 5.64013C21.9962 5.6316 21.4562 6.15204 21.4393 6.83459C21.4224 7.56832 21.954 8.13142 22.6628 8.13142C23.3378 8.13142 23.8779 7.59392 23.8863 6.91137C23.8947 6.1947 23.38 5.64866 22.6797 5.64013ZM8.1158 22.4905C8.13267 21.7653 7.58421 21.1936 6.88386 21.1936C6.21726 21.1936 5.6688 21.7397 5.66036 22.4137C5.65192 23.1133 6.19195 23.6764 6.87542 23.6849C7.55889 23.6849 8.10736 23.1645 8.12424 22.4905H8.1158ZM1.52577 15.8783C0.833859 15.8612 0.268518 16.4073 0.26008 17.0984C0.251642 17.8065 0.766356 18.3611 1.4667 18.3781C2.15862 18.3952 2.69864 17.8492 2.70708 17.141C2.70708 16.4499 2.20081 15.8954 1.52577 15.8783ZM17.2541 0.256555C16.5706 0.256555 16.0306 0.828187 16.0306 1.5278C16.0306 2.19328 16.5791 2.75638 17.2456 2.75638C17.946 2.75638 18.4691 2.2274 18.4691 1.51073C18.4691 0.776996 17.9544 0.248023 17.2541 0.256555ZM22.6291 15.8783C21.9625 15.8783 21.4309 16.4414 21.4393 17.124C21.4393 17.8236 21.9793 18.3781 22.6712 18.3781C23.3378 18.3781 23.8863 17.8065 23.8779 17.1069C23.8779 16.4073 23.321 15.8698 22.6291 15.8783ZM6.8923 2.75638C7.55046 2.75638 8.10736 2.18475 8.10736 1.51926C8.10736 0.819655 7.55889 0.256555 6.88386 0.248023C6.20882 0.248023 5.64348 0.819655 5.65192 1.5022C5.65192 2.20181 6.20039 2.74785 6.8923 2.74785V2.75638ZM17.2541 21.1851C16.5791 21.1851 16.039 21.7226 16.0306 22.4052C16.0221 23.1218 16.5284 23.6593 17.2372 23.6849C17.9207 23.702 18.4607 23.1645 18.4691 22.4478C18.4691 21.7311 17.9544 21.1851 17.2625 21.1936L17.2541 21.1851ZM10.2422 12.0646C10.2759 13.0884 11.1028 13.8819 12.1323 13.8648C13.1786 13.8477 13.9886 12.9775 13.9549 11.911C13.9211 10.8787 13.0857 10.0681 12.0732 10.1023C10.9763 10.1364 10.2084 10.9555 10.2422 12.0731V12.0646Z" fill="#EDEDFF"></path>
  </g>
  <defs>
    <clipPath id="clip0_1326_94180">
      <rect width="121" height="24" fill="white"></rect>
    </clipPath>
  </defs>
</svg>
