<?xml version="1.0" encoding="UTF-8"?>
<svg xmlns="http://www.w3.org/2000/svg" width="24" height="24" viewBox="0 0 24 24" fill="none">
  <g id="24/General/Tips">
    <mask id="mask0_1339_94532" style="mask-type:alpha" maskUnits="userSpaceOnUse" x="0" y="0" width="24" height="24">
      <rect id="Bounding box" width="24" height="24" fill="#17063B"></rect>
    </mask>
    <g mask="url(#mask0_1339_94532)">
      <path id="tips_and_updates" d="M21 11L20.375 9.625L19 9L20.375 8.375L21 7L21.625 8.375L23 9L21.625 9.625L21 11ZM18 7L17.05 4.95L15 4L17.05 3.05L18 1L18.95 3.05L21 4L18.95 4.95L18 7ZM8 23C7.45 23 6.97933 22.8043 6.588 22.413C6.196 22.021 6 21.55 6 21H10C10 21.55 9.80433 22.021 9.413 22.413C9.021 22.8043 8.55 23 8 23ZM4 20V18H12V20H4ZM4.25 17C3.1 16.3167 2.18767 15.4 1.513 14.25C0.837667 13.1 0.5 11.85 0.5 10.5C0.5 8.41667 1.22933 6.646 2.688 5.188C4.146 3.72933 5.91667 3 8 3C10.0833 3 11.854 3.72933 13.312 5.188C14.7707 6.646 15.5 8.41667 15.5 10.5C15.5 11.85 15.1627 13.1 14.488 14.25C13.8127 15.4 12.9 16.3167 11.75 17H4.25ZM4.85 15H11.15C11.9 14.4667 12.479 13.8083 12.887 13.025C13.2957 12.2417 13.5 11.4 13.5 10.5C13.5 8.96667 12.9667 7.66667 11.9 6.6C10.8333 5.53333 9.53333 5 8 5C6.46667 5 5.16667 5.53333 4.1 6.6C3.03333 7.66667 2.5 8.96667 2.5 10.5C2.5 11.4 2.70433 12.2417 3.113 13.025C3.521 13.8083 4.1 14.4667 4.85 15Z" fill="#F8F8FF"></path>
    </g>
  </g>
</svg>
